<?xml version="1.0" encoding="utf-8"?>
<!-- Generator: Adobe Illustrator 27.2.0, SVG Export Plug-In . SVG Version: 6.00 Build 0)  -->
<svg version="1.1" id="Layer_1" xmlns="http://www.w3.org/2000/svg" xmlns:xlink="http://www.w3.org/1999/xlink" x="0px" y="0px"
	 viewBox="0 0 351 365" style="enable-background:new 0 0 351 365;" xml:space="preserve">
<style type="text/css">
	.st0{fill:#98CE97;}
	.st1{fill:url(#SVGID_1_);}
	.st2{fill:url(#SVGID_00000088107110843852214260000014531964252627978925_);}
</style>
<g id="Layer_1_1_">
</g>
<g>
	<path class="st0" d="M330.4,210.5c-9-31-37.4-52.2-69.3-52.2H125.6V67.7h114.3c24.1-0.6,47.6,8.7,64.7,25.8
		c17.1,16.8,26.4,40.3,25.8,64.7L330.4,210.5L330.4,210.5z"/>
	
		<linearGradient id="SVGID_1_" gradientUnits="userSpaceOnUse" x1="80.3362" y1="91.4087" x2="80.3362" y2="204.776" gradientTransform="matrix(1 0 0 -1 0 366)">
		<stop  offset="0" style="stop-color:#009F59"/>
		<stop  offset="1" style="stop-color:#56B879"/>
	</linearGradient>
	<path class="st1" d="M35.1,158.5v63c9,31,37.4,52.2,69.3,52.2h21.2V158.5H35.1z"/>
	
		<linearGradient id="SVGID_00000023979564734436762000000004591785395788833176_" gradientUnits="userSpaceOnUse" x1="282.144" y1="217.5508" x2="286.2496" y2="91.1011" gradientTransform="matrix(1 0 0 -1 0 366)">
		<stop  offset="0" style="stop-color:#009F59"/>
		<stop  offset="1" style="stop-color:#56B879"/>
	</linearGradient>
	<path style="fill:url(#SVGID_00000023979564734436762000000004591785395788833176_);" d="M261.1,158.3h-21.2v115.2h90.5v-63
		C321.4,179.7,293,158.5,261.1,158.3z"/>
	<path class="st0" d="M261.1,273.4H104.4c-31.9,0-60.4-21.2-69.3-52.2v52.2V364h204.8c24.1,0.6,47.6-8.7,64.7-25.8
		c17.1-16.8,26.4-40.3,25.8-64.7L261.1,273.4L261.1,273.4z"/>
	<rect x="91.1" y="1" class="st0" width="38.6" height="38.6"/>
	<rect x="20.6" y="53.5" class="st0" width="77.2" height="77.2"/>
</g>
</svg>
